<svg id="Layer_1" height="512" viewBox="0 0 512 512" width="512" xmlns="http://www.w3.org/2000/svg" data-name="Layer 1">
<path fill="#5C9833" d="m367.36 289h-150a6 6 0 0 0 0 12h150a6 6 0 0 0 0-12z"/>
<path fill="#5C9833" d="m156.777 293.889-13.33 12.745-5.407-5.407a6 6 0 0 0 -8.485 8.485l9.556 9.556a6 6 0 0 0 8.389.094l17.57-16.8a6 6 0 0 0 -8.293-8.673z"/>
<path fill="#5C9833" d="m147.361 265.9a40.722 40.722 0 1 0 40.722 40.721 40.768 40.768 0 0 0 -40.722-40.721zm0 69.443a28.722 28.722 0 1 1 28.722-28.722 28.754 28.754 0 0 1 -28.722 28.726z"/>
<path fill="#5C9833" d="m217.361 321h80a6 6 0 0 0 0-12h-80a6 6 0 0 0 0 12z"/>
<path fill="#5C9833" d="m367.36 385h-150a6 6 0 0 0 0 12h150a6 6 0 0 0 0-12z"/>
<path fill="#5C9833" d="m156.777 389.889-13.33 12.745-5.407-5.407a6 6 0 0 0 -8.485 8.485l9.556 9.556a6 6 0 0 0 8.389.094l17.57-16.8a6 6 0 0 0 -8.293-8.673z"/>
<path fill="#5C9833" d="m147.361 361.9a40.722 40.722 0 1 0 40.722 40.721 40.768 40.768 0 0 0 -40.722-40.721zm0 69.443a28.722 28.722 0 1 1 28.722-28.722 28.754 28.754 0 0 1 -28.722 28.726z"/>
<path fill="#5C9833" d="m297.36 405h-80a6 6 0 0 0 0 12h80a6 6 0 0 0 0-12z"/>
<path fill="#5C9833" d="m124.836 250h144.328a5.74 5.74 0 0 0 5.836-5.856l.062-40.077a33.634 33.634 0 0 0 -22.506-29.1l-17.394-6.322-4.36-15.039a6.163 6.163 0 0 0 -2.738-3.647 6.034 6.034 0 0 0 -3.942-.771 42.14 42.14 0 0 0 14.315-24.24l1.068-3.676a16.133 16.133 0 0 0 8.79-18.091 13.574 13.574 0 0 0 -6.295-8.437v-14.57c0-25.073-20.516-46.118-45.586-45.8a45.031 45.031 0 0 0 -44.414 44.869v15.492a13.591 13.591 0 0 0 -6.3 8.446 15.973 15.973 0 0 0 8.78 18.093l1.077 3.676a42.138 42.138 0 0 0 14.258 24.188 5.9 5.9 0 0 0 -5.6 4.066l-5.19 15.372-17.357 6.3a33.761 33.761 0 0 0 -22.728 29.191l.06 40.077a5.74 5.74 0 0 0 5.836 5.856zm62.819-12 8.765-44.807a1.15 1.15 0 0 1 2.258 0l8.566 44.8zm21.345-74.831-11.952 12.062-12.048-12.565v-5.272a43.573 43.573 0 0 0 24-.014zm13.111 3.53 1.792 6.173-11 14.669-6.635-4.552zm-34.28 16.224-6.732 4.618-10.899-14.541 2.19-6.485zm45.241-2.277 14.636 5.306a23.245 23.245 0 0 1 14.81 16.283l.006.025a19.645 19.645 0 0 1 .476 4.54v31.2h-14v-17.942a6.167 6.167 0 0 0 -5.815-6.249 6 6 0 0 0 -6.185 6v18.191h-17.539l-7-36.606a6.042 6.042 0 0 0 1.789.313 5.974 5.974 0 0 0 4.8-2.383zm-36-134.271a32.958 32.958 0 0 1 32.928 32.868v6.631a49.148 49.148 0 0 1 -16.861-6.535 6.009 6.009 0 0 0 -4.68-11.069 71.827 71.827 0 0 1 -8.718 2.955l-.078.021a119.961 119.961 0 0 1 -32.721 3.639 5.837 5.837 0 0 0 -2.538.434 32.946 32.946 0 0 1 32.666-28.944zm-29.772 76.06q-.052-.285-.134-.566l-1.9-6.545a6 6 0 0 0 -4.838-4.672 3.779 3.779 0 0 1 -3-4.616 1.383 1.383 0 0 1 .244-.522 11.038 11.038 0 0 0 3.116.461 11.24 11.24 0 0 0 11.2-10.711l.38-8.335a132.059 132.059 0 0 0 27.019-3.229c4.513 4.3 14.613 11.931 30.613 14.334v1.066a5.945 5.945 0 0 0 5.818 5.994 1.25 1.25 0 0 1 .79.943 3.845 3.845 0 0 1 -3.025 4.614 6.045 6.045 0 0 0 -4.774 4.443l-1.972 6.774c-.054.187-.1.376-.135.566a30.222 30.222 0 0 1 -59.4 0zm-36.3 84.465a20.767 20.767 0 0 1 .7-5.516l.072-.256a23.167 23.167 0 0 1 14.54-15.18l14.656-5.3 14 18.7a5.972 5.972 0 0 0 4.794 2.4 6.039 6.039 0 0 0 2.767-.768l-7.092 37.02h-18.437v-17.942a6.167 6.167 0 0 0 -5.815-6.249 6 6 0 0 0 -6.185 6v18.191h-14z"/>
<path fill="#5C9833" d="m444.1 95h-31.1v-5.471a5.861 5.861 0 0 0 -1.674-4.309l-79-76.569a5.785 5.785 0 0 0 -4.103-1.651h-260.317a5.853 5.853 0 0 0 -5.906 5.92v451.7c0 3.313 2.592 6.385 5.906 6.385h42.094v28.08a5.994 5.994 0 0 0 6.071 5.92h328.029a5.852 5.852 0 0 0 5.9-5.92v-397.999a5.994 5.994 0 0 0 -5.9-6.086zm-110.1-67.913 58.646 56.913h-58.646zm-260 431.913v-440h248v70.684a6.471 6.471 0 0 0 6.223 6.316h72.777v363zm364 34h-316v-22h285.3c3.313 0 5.7-3.072 5.7-6.385v-357.615h25z"/>
<path fill="#5C9833" d="m93 34.841a6 6 0 0 0 -6 6v3.6a6 6 0 1 0 12 0v-3.6a6 6 0 0 0 -6-6z"/>
<path fill="#5C9833" d="m93 58.522a6 6 0 0 0 -6 6v130.507a6 6 0 0 0 12 0v-130.507a6 6 0 0 0 -6-6z"/>
</svg>