<svg xmlns="http://www.w3.org/2000/svg" viewBox="0 0 500 500"><g id="freepik--background-simple--inject-2"><path d="M293.47,182.37c-22.64-23.62-35.19-49.8-66.19-67.21-24.3-13.66-52.12-24.76-87-16C107.12,107.56,78.2,126,69.67,155.3c-8.43,29,2.47,62.64,21.4,81.91,10.08,10.27,24.54,15.86,37.5,23.34,14.29,8.26,23.05,19.57,30.08,33.09,12.36,23.75,21.81,48.12,53,57.34,30.56,9,65.3-1.74,99-11.82,30.8-9.21,76.72-15,93.09-45.39,15.48-28.72.84-65.78-23-80.17C354.26,197.58,315.18,205,293.47,182.37Z" style="fill:#3D52D5"></path><path d="M293.47,182.37c-22.64-23.62-35.19-49.8-66.19-67.21-24.3-13.66-52.12-24.76-87-16C107.12,107.56,78.2,126,69.67,155.3c-8.43,29,2.47,62.64,21.4,81.91,10.08,10.27,24.54,15.86,37.5,23.34,14.29,8.26,23.05,19.57,30.08,33.09,12.36,23.75,21.81,48.12,53,57.34,30.56,9,65.3-1.74,99-11.82,30.8-9.21,76.72-15,93.09-45.39,15.48-28.72.84-65.78-23-80.17C354.26,197.58,315.18,205,293.47,182.37Z" style="fill:#fff;opacity:0.9"></path></g><g id="freepik--Shadow--inject-2"><ellipse id="freepik--path--inject-2" cx="250" cy="416.24" rx="193.89" ry="11.32" style="fill:#f5f5f5"></ellipse></g><g id="freepik--Bed--inject-2"><rect x="80.51" y="297.63" width="129.49" height="74.01" rx="12" style="fill:#3D52D5"></rect><rect x="80.51" y="297.63" width="129.49" height="74.01" rx="12" style="fill:#fff;opacity:0.7000000000000001"></rect><path d="M80.51,309.62v50a12,12,0,0,0,12,12V306.7A5.64,5.64,0,0,0,81.92,304,11.89,11.89,0,0,0,80.51,309.62Z" style="fill:#3D52D5;opacity:0.2"></path><rect x="80.51" y="351.57" width="338.97" height="34.24" rx="12" style="fill:#3D52D5"></rect><rect x="80.51" y="351.57" width="338.97" height="34.24" rx="12" style="fill:#fff;opacity:0.7000000000000001"></rect><rect x="80.51" y="351.57" width="219.57" height="34.24" rx="12" style="fill:#3D52D5;opacity:0.2"></rect><polygon points="273.08 416.24 276.66 416.24 283.75 385.81 273.08 385.81 273.08 416.24" style="fill:#3D52D5"></polygon><polygon points="273.08 416.24 276.66 416.24 283.75 385.81 273.08 385.81 273.08 416.24" style="fill:#fff;opacity:0.7000000000000001"></polygon><polygon points="270.17 416.24 273.75 416.24 280.83 385.81 270.17 385.81 270.17 416.24" style="fill:#3D52D5"></polygon><polygon points="270.17 416.24 273.75 416.24 280.83 385.81 270.17 385.81 270.17 416.24" style="fill:#fff;opacity:0.4"></polygon><polygon points="391.25 416.24 394.83 416.24 401.92 385.81 391.25 385.81 391.25 416.24" style="fill:#3D52D5"></polygon><polygon points="391.25 416.24 394.83 416.24 401.92 385.81 391.25 385.81 391.25 416.24" style="fill:#fff;opacity:0.7000000000000001"></polygon><polygon points="388.34 416.24 391.92 416.24 399 385.81 388.34 385.81 388.34 416.24" style="fill:#3D52D5"></polygon><polygon points="388.34 416.24 391.92 416.24 399 385.81 388.34 385.81 388.34 416.24" style="fill:#fff;opacity:0.4"></polygon><polygon points="98.57 416.24 102.15 416.24 109.24 385.81 98.57 385.81 98.57 416.24" style="fill:#3D52D5"></polygon><polygon points="98.57 416.24 102.15 416.24 109.24 385.81 98.57 385.81 98.57 416.24" style="fill:#fff;opacity:0.7000000000000001"></polygon><polygon points="95.65 416.24 99.23 416.24 106.32 385.81 95.65 385.81 95.65 416.24" style="fill:#3D52D5"></polygon><polygon points="95.65 416.24 99.23 416.24 106.32 385.81 95.65 385.81 95.65 416.24" style="fill:#fff;opacity:0.4"></polygon><polygon points="216.74 416.24 220.32 416.24 227.41 385.81 216.74 385.81 216.74 416.24" style="fill:#3D52D5"></polygon><polygon points="216.74 416.24 220.32 416.24 227.41 385.81 216.74 385.81 216.74 416.24" style="fill:#fff;opacity:0.7000000000000001"></polygon><polygon points="213.82 416.24 217.4 416.24 224.49 385.81 213.82 385.81 213.82 416.24" style="fill:#3D52D5"></polygon><polygon points="213.82 416.24 217.4 416.24 224.49 385.81 213.82 385.81 213.82 416.24" style="fill:#fff;opacity:0.4"></polygon><path d="M129.83,351.57c-21.55,0-26.41-37.64-27.09-54.51s54.87,1.09,64.65,0,36.75-12.25,45.26,1.9,4.74,23.43,13,31.86,15.56,14,8.67,20.75Z" style="fill:#3D52D5"></path><path d="M129.83,351.57c-21.55,0-26.41-37.64-27.09-54.51s54.87,1.09,64.65,0,36.75-12.25,45.26,1.9,4.74,23.43,13,31.86,15.56,14,8.67,20.75Z" style="fill:#fff;opacity:0.4"></path><path d="M129.83,351.57c-21.55,0-26.41-37.64-27.09-54.51-.26-6.33,7.39-7.76,17.58-7.13,12,2.86-4.84,22.81,6.18,34.86C136.4,335.61,138.32,350.76,129.83,351.57Z" style="fill:#3D52D5;opacity:0.4"></path></g><g id="freepik--Character--inject-2"><path d="M156.33,226.46c-6.39,3-7.25,13.58-7.91,25.83s2.1,12.84,5.47,14.71a49.87,49.87,0,0,0,18.43,5.11c9.25.89,14.82-3.27,17-5.91,2.66-3.2-4.88-18.22-3.66-23.78s1.78-15-4.88-18.11C174,221.13,157.67,218.22,156.33,226.46Z" style="fill:#263238"></path><path d="M147.5,263.5a.51.51,0,0,1-.5-.44,29.3,29.3,0,0,1,.64-10,18.49,18.49,0,0,0,.54-5.14c-1.53-18.13,5.52-21.24,10.67-23.5l.11-.06a.51.51,0,0,1,.66.26.5.5,0,0,1-.25.66l-.12.05c-5.14,2.27-11.54,5.09-10.07,22.51a19.16,19.16,0,0,1-.56,5.42,28.11,28.11,0,0,0-.62,9.65.51.51,0,0,1-.44.56Z" style="fill:#263238"></path><path d="M192.52,276.41l.55.3.7.36c.47.23.95.48,1.45.71,1,.47,2,.9,3,1.3a54.41,54.41,0,0,0,6.26,2,39.94,39.94,0,0,0,12.77,1.26l-3.57,2.06s.07,0,.12-.09a1.39,1.39,0,0,0,.11-.65,8.55,8.55,0,0,0-.78-3,38.37,38.37,0,0,0-4.42-7.36c-1.8-2.47-3.81-4.88-5.89-7.26s-4.29-4.72-6.45-7l-.06-.06a3,3,0,0,1,3.79-4.56c1.46,1,2.79,1.92,4.13,2.94s2.66,2,4,3.13a84.31,84.31,0,0,1,7.46,7,43.07,43.07,0,0,1,6.53,8.76,18.89,18.89,0,0,1,2.15,6.25,11.85,11.85,0,0,1-.13,4.21,11,11,0,0,1-1.94,4.29,5.17,5.17,0,0,1-3.3,2l-.28.05a41.83,41.83,0,0,1-8.5.59,47.62,47.62,0,0,1-8.36-1,52.25,52.25,0,0,1-8-2.36c-1.29-.5-2.56-1.05-3.82-1.65-.63-.3-1.26-.61-1.89-.95l-.94-.53c-.34-.19-.59-.34-1.06-.63a6,6,0,0,1,6-10.37Z" style="fill:#ffc3bd"></path><path d="M197.57,259.45l-6.12-4.22,6.88-5.6a23.88,23.88,0,0,1,2.27,8.49Z" style="fill:#ffc3bd"></path><path d="M189,249.65l2.42-3.6a2.15,2.15,0,0,1,3.37-.27l3.59,3.85-6.88,5.6-2.4-3A2.15,2.15,0,0,1,189,249.65Z" style="fill:#ffc3bd"></path><path d="M197.34,257.35l-8.91,4.57a1.22,1.22,0,0,1-1.65-.63l-8.66-18.47a1.33,1.33,0,0,1,.53-1.75l8.91-4.57a1.23,1.23,0,0,1,1.65.63l8.66,18.47A1.33,1.33,0,0,1,197.34,257.35Z" style="fill:#263238"></path><path d="M196.4,257.32l-8.59,4.41a1.19,1.19,0,0,1-1.59-.61l-8.35-17.81a1.28,1.28,0,0,1,.52-1.68l8.59-4.41a1.18,1.18,0,0,1,1.59.61l8.34,17.8A1.28,1.28,0,0,1,196.4,257.32Z" style="fill:#fff"></path><path d="M152,276a10.09,10.09,0,0,0-8.44,11.36c2.64,18.3,13.15,36.75,27.28,52.5,5.18,5.77,11.31,11.81,14.92,11.81,24.53,0,23.45-2.82,31.79-17.56a8.75,8.75,0,0,0-.52-9.46c-5.65-7.77-14.87-17.77-14.61-21.32.92-12.11-7.85-12.23-7.87-23a5,5,0,0,0-4.23-5c-2.62-.35-6-.73-9.64-1a135.9,135.9,0,0,0-19.64.53C157.9,275.14,154.77,275.56,152,276Z" style="fill:#3D52D5"></path><path d="M152.63,288.07l-7.81,5.67A91.29,91.29,0,0,0,155,318.27C155.51,304.34,152.63,288.07,152.63,288.07Z" style="opacity:0.15"></path><path d="M213.25,320.68s27.68-3.46,42.5-3.46c7.78,1.16,12.22,11.83,10.78,20.33-1.11,6.67-9.74,14.12-23.17,14.12-8.16,0-34.3.12-42.19.12C193.83,351.79,201.32,322.57,213.25,320.68Z" style="fill:#263238"></path><path d="M308.12,347.83a31.34,31.34,0,0,0,.12-8.19c-.44-1.9,2-3.66,3.62-4.05,1.84-.23,4.33-1.38,4.91,1.11.43,1.88,6.79,9.64,17.11,12.09,1.44.34,1.29,2.63-2.09,2.78s-10.53-.73-13-.62c-4.08.19-6.12.91-8.54,1C308,352,307.61,349.87,308.12,347.83Z" style="fill:#ffc3bd"></path><path d="M245.26,323.39a14.38,14.38,0,0,1,1.21-1.1l1.2-1,2.37-1.87,4.76-3.63c3.18-2.4,6.38-4.74,9.64-7a166.34,166.34,0,0,1,20.43-12.4l1.34-.68A15.17,15.17,0,0,1,291,294.1a14.18,14.18,0,0,1,5.26.17,14.77,14.77,0,0,1,4,1.55,17.71,17.71,0,0,1,4.56,3.75,23.87,23.87,0,0,1,2.58,3.44,41.53,41.53,0,0,1,3.23,6.31c.86,2,1.54,4,2.17,6a97.77,97.77,0,0,1,2.82,11.88,93.23,93.23,0,0,1,1.36,12,4.3,4.3,0,0,1-8,2.36l-.07-.12c-3.84-6.55-7.42-13.31-11.23-19.32-.94-1.5-1.92-2.93-2.87-4.27a29.74,29.74,0,0,0-2.84-3.41,6.47,6.47,0,0,0-1.12-.93c-.26-.15-.45-.12,0,.26a4.16,4.16,0,0,0,1.32.56,6.31,6.31,0,0,0,2.41.13,6.38,6.38,0,0,0,2.09-.64l-1.13.78c-6,4.12-12.08,8.27-18,12.57-3,2.16-5.93,4.36-8.8,6.64-1.44,1.14-2.86,2.29-4.25,3.47l-2.07,1.77a24.05,24.05,0,0,1-2,1.64l-.57.36a11.54,11.54,0,0,1-14.58-17.67Z" style="fill:#ffc3bd"></path><path d="M333.88,348.79c-10.17-2.41-16.48-10-17.08-12-.24-3.23-.67-6.37-1.21-9.56a97.77,97.77,0,0,0-2.82-11.88c-.63-2-1.31-4-2.17-6a41.53,41.53,0,0,0-3.23-6.31,23.87,23.87,0,0,0-2.58-3.44,17.71,17.71,0,0,0-4.56-3.75,14.77,14.77,0,0,0-4-1.55,14.18,14.18,0,0,0-5.26-.17,15.17,15.17,0,0,0-4.76,1.63l-1.34.68a166.34,166.34,0,0,0-20.43,12.4c-3.26,2.28-6.46,4.62-9.64,7L250,319.46l-2.37,1.87-1.2,1a14.38,14.38,0,0,0-1.21,1.1,11.54,11.54,0,0,0,14.58,17.67l.57-.36a24.05,24.05,0,0,0,2-1.64l2.07-1.77c1.39-1.18,2.81-2.33,4.25-3.47,2.87-2.28,5.82-4.48,8.8-6.64,5.25-3.79,10.58-7.46,15.9-11.1.46.56.92,1.16,1.38,1.78,1,1.34,1.93,2.77,2.87,4.27,3.64,5.74,7.08,12.17,10.73,18.45a34.51,34.51,0,0,1-.26,7.25c-.51,2-.13,4.13,2.1,4.08,2.42-.05,4.46-.77,8.54-1,2.5-.11,9.56.78,13,.62S335.32,349.13,333.88,348.79Zm-43.06-35.27a5.56,5.56,0,0,1,.85.67,4.66,4.66,0,0,1-.82-.41C290.37,313.4,290.56,313.37,290.82,313.52Z" style="opacity:0.15"></path><path d="M336,349.72a30.63,30.63,0,0,0-4.81-6.61c-1.49-1.26-.6-4.15.45-5.44,1.32-1.3,2.62-3.73,4.57-2.09,1.48,1.25,11.19,3.6,20.87-.69,1.35-.59,2.76.93.16,3.1s-9,6.18-10.89,7.79c-3.13,2.62-4.33,4.43-6.22,5.94S336.82,351.67,336,349.72Z" style="fill:#ffc3bd"></path><path d="M200.17,326.5s12.42-9.28,27.23-9.28c7.78,1.16,12.23,11.83,10.78,20.33-1.11,6.67-9.74,14.12-23.16,14.12-8.17,0-19,.12-26.85.12C180.83,351.79,188.24,328.39,200.17,326.5Z" style="fill:#263238"></path><path d="M220,322.73a2.18,2.18,0,0,1,1.43-1.65l1.81-.86,3.62-1.71,7.24-3.41,14.54-6.7c4.88-2.18,9.79-4.31,14.75-6.34,2.49-1,5-2,7.49-3l.94-.36.47-.18a12.12,12.12,0,0,1,3.19-.94,13.43,13.43,0,0,1,3.7,0,18.06,18.06,0,0,1,2.17.41,24.77,24.77,0,0,1,3,1c.86.33,1.63.66,2.37,1,2.92,1.38,5.39,2.8,7.84,4.26s4.74,3,7,4.49c4.54,3.09,9,6.19,13.26,9.47,8.62,6.5,16.93,13.25,24.92,20.54a4.23,4.23,0,0,1-4.68,6.93l0,0c-9.58-4.62-19-9.48-28.44-14.22-4.72-2.32-9.36-4.73-14.05-6.9-2.33-1.1-4.64-2.19-6.93-3.17a69.58,69.58,0,0,0-6.54-2.57c-.49-.16-1-.3-1.36-.4a3.37,3.37,0,0,0-.82-.13s0,0,.21.08a5.25,5.25,0,0,0,1.71,0,8.14,8.14,0,0,0,2.24-.66l-.43.24-.86.47-6.95,3.75c-4.64,2.5-9.31,5-14,7.39l-14.08,7.26-7,3.65-3.51,1.83-1.75.92a2.09,2.09,0,0,1-2.13.13l-.49-.22A17.56,17.56,0,0,1,220,322.73Z" style="fill:#ffc3bd"></path><path d="M154.59,285.25c-1.49,7.26-2.92,14.72-4.12,22.05-.58,3.67-1.14,7.35-1.52,11-.16,1.8-.34,3.61-.42,5.35-.07.9-.07,1.74-.07,2.58v1.21q0,.34.06.69a6.87,6.87,0,0,0,1.32,3,15.87,15.87,0,0,0,3.06,3.08,42.56,42.56,0,0,0,8.85,5.14A99.64,99.64,0,0,0,172,343.16c3.49,1.17,7.15,2.15,10.68,3l.13,0a3,3,0,0,1-.93,5.86,95.38,95.38,0,0,1-23.36-4.46,48.63,48.63,0,0,1-11.42-5.38,26.36,26.36,0,0,1-5.33-4.66,16.4,16.4,0,0,1-4.08-9.34c0-.19,0-.33,0-.46l0-.39,0-.8c-.07-1.07-.12-2.13-.11-3.14,0-2.07.05-4.07.15-6.08.23-4,.64-7.89,1.14-11.77,1-7.77,2.4-15.32,4.15-23a6,6,0,0,1,11.73,2.54Z" style="fill:#ffc3bd"></path><path d="M162.41,252.73c1.4,6.29,3,17.84-1.36,22.17,0,0,8.56,8.23,16.68,8s3-8.53,3-8.53c-7.1-1.49-7.06-6.72-6-11.67Z" style="fill:#ffc3bd"></path><path d="M167.43,256.8l7.3,5.9a20.39,20.39,0,0,0-.51,3.5c-2.7-.32-6.82-2.62-7.18-5.43A11.41,11.41,0,0,1,167.43,256.8Z" style="opacity:0.2"></path><path d="M156,242c2.66,10.23,3.57,14.62,9.84,18.91,9.43,6.46,21.42.95,21.87-9.87.4-9.74-4-24.84-15-27A14.42,14.42,0,0,0,156,242Z" style="fill:#ffc3bd"></path><path d="M155.57,251.36A7.71,7.71,0,0,0,160.2,255c2.62.72,3.91-1.63,3.17-4.08-.66-2.22-2.83-5.26-5.44-4.89S154.36,249.16,155.57,251.36Z" style="fill:#ffc3bd"></path><path d="M161.89,225.28c4.89-1.75,5.33,32.23,4.67,38.36s-3.5,5.75-8.89,3.42-6.34-6.95-5.67-15.56S153.67,228.22,161.89,225.28Z" style="fill:#263238"></path><path d="M161.05,226.78c4.81,9.68,24.38,7.5,22.53,4.39s-6-7.17-10.49-7.73S162.61,223.34,161.05,226.78Z" style="fill:#263238"></path><path d="M175.89,235.84c-5.84,0-12.9-2.71-15.3-8.88a.5.5,0,1,1,.93-.36c2.23,5.72,9.3,8.47,15.1,8.22,3.73-.15,6.41-1.48,7-3.46a.5.5,0,0,1,1,.28c-.71,2.4-3.74,4-7.91,4.18Z" style="fill:#263238"></path><path d="M172.62,243.26c.17.84.75,1.43,1.3,1.33s.86-.88.7-1.73-.75-1.43-1.3-1.33S172.46,242.41,172.62,243.26Z" style="fill:#263238"></path><path d="M182.16,241.39c.16.84.74,1.44,1.29,1.33s.87-.88.7-1.72-.74-1.44-1.3-1.33S182,240.55,182.16,241.39Z" style="fill:#263238"></path><path d="M182.62,239.76l1.91-1S183.8,240.57,182.62,239.76Z" style="fill:#263238"></path><path d="M179,243a24.12,24.12,0,0,0,5.05,4.18,3.71,3.71,0,0,1-2.56,1.77Z" style="fill:#ed847e"></path><path d="M178.78,253.13a.21.21,0,0,0-.1-.4,6.89,6.89,0,0,1-6-1.56.22.22,0,0,0-.3,0,.21.21,0,0,0,0,.29,7.17,7.17,0,0,0,6.38,1.68Z" style="fill:#263238"></path><path d="M169.15,240.12a.43.43,0,0,0,.24-.18,4.09,4.09,0,0,1,3.11-2.05.44.44,0,0,0,.41-.44.42.42,0,0,0-.44-.4,4.9,4.9,0,0,0-3.8,2.45.42.42,0,0,0,.14.58A.45.45,0,0,0,169.15,240.12Z" style="fill:#263238"></path><path d="M186,236.44a.43.43,0,0,0,.25-.19.42.42,0,0,0-.17-.57,4.85,4.85,0,0,0-4.51-.26.42.42,0,0,0,.38.74,4.09,4.09,0,0,1,3.72.25A.39.39,0,0,0,186,236.44Z" style="fill:#263238"></path><path d="M173.09,241.63l1.91-1S174.27,242.43,173.09,241.63Z" style="fill:#263238"></path><path d="M179.43,351.78l9.39,1.3-.43-8.86s-7,1.79-10,4.41Z" style="fill:#ffc3bd"></path><path d="M194.1,351.34l-.21-1.88a5.84,5.84,0,0,0-4.77-5.11l-.73-.13.43,8.86,4-.24A1.36,1.36,0,0,0,194.1,351.34Z" style="fill:#ffc3bd"></path></g><g id="freepik--Blanket--inject-2"><path d="M302.42,351.57s-12.7-4.11-22.21-5.05a22.06,22.06,0,0,0-3.11-.18h-.35l-.48,0a47.71,47.71,0,0,0-11.69,2c-5.57,1.71-12.92-.46-19.11-1.16s-25.6,1.95-30,.61-26.14.66-29.82,1.46-14.69.77-19.61-.77-26.95-1-26.82,3.85c.33,11.85-5.34,41.7,3.71,51.48,1.86,2,19.29-.3,30.89-1.33s33.5,1.37,43.2.23,24.34-.34,31.23-.34,33.63,5.36,34,.57c.31-4.07,4.44-39.35,3-51.38Z" style="fill:#3D52D5"></path><path d="M302.42,351.57s-12.7-4.11-22.21-5.05a22.06,22.06,0,0,0-3.11-.18h-.35l-.48,0a47.71,47.71,0,0,0-11.69,2c-5.57,1.71-12.92-.46-19.11-1.16s-25.6,1.95-30,.61-26.14.66-29.82,1.46-14.69.77-19.61-.77-26.95-1-26.82,3.85c.33,11.85-5.34,41.7,3.71,51.48,1.86,2,19.29-.3,30.89-1.33s33.5,1.37,43.2.23,24.34-.34,31.23-.34,33.63,5.36,34,.57c.31-4.07,4.44-39.35,3-51.38Z" style="fill:#fff;opacity:0.2"></path><path d="M171.56,399.75c.2-6,.71-22.78.73-39.19,0-2.48,2.28-2.84,2.6-.4,2,15.85,3.75,32.93,4.34,38.92.12,1.2-.45,2.29-1.22,2.37l-5.07.47C172.17,402,171.52,401,171.56,399.75Z" style="fill:#3D52D5;opacity:0.5"></path><path d="M237.63,399.7c.41-5.57,1.75-24.29,2.54-42,.08-1.81,1.77-1.85,1.88,0,1,17.26,1.7,36.6,1.88,42.13,0,.85-.4,1.55-.94,1.55h-4.42C238,401.36,237.57,400.59,237.63,399.7Z" style="fill:#3D52D5;opacity:0.5"></path></g><g id="freepik--bubble-speech--inject-2"><path d="M327.64,160.09a44.16,44.16,0,0,0-4-9.29l.87-.49a44.67,44.67,0,0,1,4.07,9.5Z" style="fill:#3D52D5"></path><path d="M318.6,143.53A63.3,63.3,0,0,0,293,125.63l.37-.93a64.35,64.35,0,0,1,26,18.19Z" style="fill:#3D52D5"></path><path d="M264.11,122.76c-34.67,0-62.77,22-62.77,49.17a41.33,41.33,0,0,0,8.87,25.2l-5.38,20.43,18.65-8.16c11,7.29,25.13,11.7,40.63,11.7,34.66,0,62.76-22,62.76-49.17S298.77,122.76,264.11,122.76Z" style="fill:#3D52D5"></path><path d="M300.24,159.27H228a4.64,4.64,0,1,1,0-9.28h72.26a4.64,4.64,0,0,1,0,9.28ZM228,151.13a3.5,3.5,0,0,0,0,7h72.26a3.5,3.5,0,0,0,0-7Z" style="fill:#fff"></path><path d="M300.24,176.57H228a4.64,4.64,0,0,1,0-9.28h72.26a4.64,4.64,0,0,1,0,9.28ZM228,168.43a3.5,3.5,0,1,0,0,7h72.26a3.5,3.5,0,0,0,0-7Z" style="fill:#fff"></path><path d="M281.53,193.88H228a4.64,4.64,0,0,1,0-9.28h53.55a4.64,4.64,0,1,1,0,9.28ZM228,185.74a3.5,3.5,0,0,0,0,7h53.55a3.5,3.5,0,0,0,0-7Z" style="fill:#fff"></path></g></svg>