<svg xmlns="http://www.w3.org/2000/svg" viewBox="0 0 500 500"><g id="freepik--Floor--inject-15"><path d="M98,388.25c87.46,45.69,229.27,45.69,316.73,0s87.46-119.77,0-165.47S185.5,177.09,98,222.78,10.58,342.56,98,388.25Z" style="fill:#f5f5f5"></path></g><g id="freepik--folder-2--inject-15"><polygon points="138.62 191.23 138.62 346.01 297.04 254.55 297.03 113.84 179.24 181.85 175.17 170.12 138.62 191.23" style="fill:#2850CA"></polygon><polygon points="138.62 191.23 138.62 346.01 297.04 254.55 297.03 113.84 179.24 181.85 175.17 170.12 138.62 191.23" style="opacity:0.7000000000000001"></polygon><polygon points="138.62 346.01 146.74 205.3 305.16 113.84 297.04 254.55 138.62 346.01" style="fill:#e0e0e0"></polygon><polygon points="138.62 346.01 150.8 207.65 309.22 116.18 297.04 254.55 138.62 346.01" style="fill:#2850CA"></polygon><polygon points="138.62 346.01 150.8 207.65 309.22 116.18 297.04 254.55 138.62 346.01" style="opacity:0.7000000000000001"></polygon></g><g id="freepik--folder-1--inject-15"><polygon points="162.99 205.3 162.99 360.09 321.41 268.62 321.41 127.91 203.61 195.92 199.55 184.19 162.99 205.3" style="fill:#2850CA"></polygon><polygon points="162.99 205.3 162.99 360.09 321.41 268.62 321.41 127.91 203.61 195.92 199.55 184.19 162.99 205.3" style="opacity:0.5"></polygon><polygon points="162.99 360.09 171.11 219.37 329.53 127.91 321.41 268.62 162.99 360.09" style="fill:#e0e0e0"></polygon><polygon points="162.99 360.09 175.17 221.72 333.59 130.25 321.41 268.62 162.99 360.09" style="fill:#2850CA"></polygon><polygon points="162.99 360.09 175.17 221.72 333.59 130.25 321.41 268.62 162.99 360.09" style="opacity:0.5"></polygon></g><g id="freepik--Documents--inject-15"><path d="M297,409.34c-28.44-16.42-54.82-34.27-66.86-55.21L266.74,333Z" style="fill:#e0e0e0"></path><polygon points="191.42 221.72 191.42 376.5 349.84 285.04 349.84 144.33 232.04 212.34 227.98 200.61 191.42 221.72" style="fill:#2850CA"></polygon><polygon points="191.42 221.72 191.42 376.5 349.84 285.04 349.84 144.33 232.04 212.34 227.98 200.61 191.42 221.72" style="opacity:0.2"></polygon><path d="M237.06,267.48c-.4,0-.46-.46-.46-.73v-132a3.32,3.32,0,0,1,1.48-2.56l114.34-66a1.06,1.06,0,0,1,.52-.16c.4,0,.46.46.46.73v132a3.33,3.33,0,0,1-1.48,2.57l-114.34,66A1.09,1.09,0,0,1,237.06,267.48Z" style="fill:#fff"></path><path d="M352.88,66.49a1,1,0,0,1,0,.22v132a2.87,2.87,0,0,1-1.23,2.14l-114.34,66-.2.09a.61.61,0,0,1,0-.22v-132a2.87,2.87,0,0,1,1.23-2.13l114.34-66a.56.56,0,0,1,.21-.09m.06-1a1.56,1.56,0,0,0-.77.23l-114.34,66a3.85,3.85,0,0,0-1.73,3v132c0,.78.39,1.23,1,1.23a1.54,1.54,0,0,0,.77-.23l114.34-66a3.81,3.81,0,0,0,1.73-3v-132c0-.78-.39-1.24-1-1.23Z" style="fill:#2850CA"></path><path d="M352.88,66.49a1,1,0,0,1,0,.22v132a2.87,2.87,0,0,1-1.23,2.14l-114.34,66-.2.09a.61.61,0,0,1,0-.22v-132a2.87,2.87,0,0,1,1.23-2.13l114.34-66a.56.56,0,0,1,.21-.09m.06-1a1.56,1.56,0,0,0-.77.23l-114.34,66a3.85,3.85,0,0,0-1.73,3v132c0,.78.39,1.23,1,1.23a1.54,1.54,0,0,0,.77-.23l114.34-66a3.81,3.81,0,0,0,1.73-3v-132c0-.78-.39-1.24-1-1.23Z" style="fill:#fff;opacity:0.7000000000000001"></path><polygon points="248.29 139.76 288.91 116.31 288.91 163.21 248.29 186.66 248.29 139.76" style="fill:#2850CA"></polygon><polygon points="248.29 139.76 288.91 116.31 288.91 163.21 248.29 186.66 248.29 139.76" style="fill:#fff;opacity:0.8"></polygon><path d="M282.82,128V142.1l-1.28.71V138.5c0-2.38-1.93-3.19-4.33-1.81L260,146.64c-2.39,1.38-4.33,4.43-4.33,6.81v4.31l-1.27.76V144.45Z" style="fill:#fff"></path><path d="M275,163.9c-2.08,1.2-3.77-.06-3.77-2.83V138.5L266,141.34v22.75c0,2.76-1.69,6-3.77,7.17l-3.78,2.18v1.5l20.31-11.73v-1.49Z" style="fill:#fff"></path><path d="M297,114c0,1.3,1.17,1.67,2.6.85L339.12,92a5.22,5.22,0,0,0,2.6-3.85c0-1.29-1.17-1.67-2.6-.84l-39.49,22.8A5.2,5.2,0,0,0,297,114Z" style="fill:#455a64"></path><path d="M297,128c0,1.3,1.17,1.68,2.6.85l39.49-22.8a5.22,5.22,0,0,0,2.6-3.85c0-1.29-1.17-1.67-2.6-.84l-39.49,22.8A5.22,5.22,0,0,0,297,128Z" style="fill:#455a64"></path><path d="M297,142.1c0,1.3,1.17,1.68,2.6.85l39.49-22.8a5.22,5.22,0,0,0,2.6-3.84c0-1.3-1.17-1.68-2.6-.85l-39.49,22.8A5.22,5.22,0,0,0,297,142.1Z" style="fill:#455a64"></path><path d="M297,156.17c0,1.3,1.17,1.68,2.6.85l39.49-22.8a5.22,5.22,0,0,0,2.6-3.84c0-1.3-1.17-1.68-2.6-.85l-39.49,22.8A5.22,5.22,0,0,0,297,156.17Z" style="fill:#455a64"></path><path d="M248.29,198.39c0,1.3,1.16,1.68,2.6.85l88.23-51a5.2,5.2,0,0,0,2.6-3.84c0-1.3-1.17-1.67-2.6-.85l-88.23,51A5.19,5.19,0,0,0,248.29,198.39Z" style="fill:#455a64"></path><path d="M248.29,212.46c0,1.3,1.16,1.68,2.6.85l88.23-50.94a5.22,5.22,0,0,0,2.6-3.85c0-1.29-1.17-1.67-2.6-.84l-88.23,50.94A5.19,5.19,0,0,0,248.29,212.46Z" style="fill:#455a64"></path><path d="M248.29,226.54c0,1.29,1.16,1.67,2.6.84l88.23-50.94a5.22,5.22,0,0,0,2.6-3.85c0-1.29-1.17-1.67-2.6-.84l-88.23,50.94A5.19,5.19,0,0,0,248.29,226.54Z" style="fill:#455a64"></path><polygon points="191.42 376.5 219.85 252.21 378.27 160.74 349.84 285.04 191.42 376.5" style="fill:#2850CA"></polygon><polygon points="230.18 261.94 230.18 354.13 266.74 333.02 266.74 240.84 230.18 261.94" style="fill:#2850CA"></polygon><polygon points="230.18 261.94 230.18 354.13 266.74 333.02 266.74 240.84 230.18 261.94" style="opacity:0.2"></polygon><path d="M297.07,408.74c-3.11-2.32-33.09-25.23-48.33-58-16.22-34.84-16.2-75.48-16.2-90.77v-.48l108.68-62.74c0,15.43,0,56.13,16.29,91.09,14.89,32,43.72,54.62,48.29,58.08Z" style="fill:#fff"></path><path d="M340.72,197.65c0,16.08.31,56,16.34,90.44,14.39,30.9,41.75,53.12,47.84,57.81L297.1,408.14c-4.21-3.17-33.06-25.7-47.9-57.57C233,315.83,233,275.27,233,260v-.19l107.68-62.17m1-1.73L232,259.24c0,14.39-.3,56.2,16.25,91.75C264.54,385.88,297,409.34,297,409.34L406.71,346s-32.5-23.46-48.74-58.35c-16.56-35.55-16.25-77.36-16.25-91.75Z" style="fill:#2850CA"></path><path d="M340.72,197.65c0,16.08.31,56,16.34,90.44,14.39,30.9,41.75,53.12,47.84,57.81L297.1,408.14c-4.21-3.17-33.06-25.7-47.9-57.57C233,315.83,233,275.27,233,260v-.19l107.68-62.17m1-1.73L232,259.24c0,14.39-.3,56.2,16.25,91.75C264.54,385.88,297,409.34,297,409.34L406.71,346s-32.5-23.46-48.74-58.35c-16.56-35.55-16.25-77.36-16.25-91.75Z" style="fill:#fff;opacity:0.7000000000000001"></path><path d="M329.31,217.15l-34.68,20a4.92,4.92,0,0,0-2.52,3.79c.05,1.27,1.26,1.63,2.69.8l34.69-20A4.92,4.92,0,0,0,332,218C331.94,216.68,330.75,216.32,329.31,217.15Z" style="fill:#455a64"></path><path d="M330.05,230.8l-34.68,20a4.62,4.62,0,0,0-2.42,3.74c.11,1.23,1.37,1.56,2.8.73l34.69-20a4.56,4.56,0,0,0,2.39-3.73C332.73,230.3,331.49,230,330.05,230.8Z" style="fill:#455a64"></path><path d="M331.44,244.07l-34.69,20c-1.43.83-2.47,2.48-2.3,3.67s1.48,1.5,2.92.67l34.69-20c1.43-.83,2.45-2.47,2.27-3.66S332.87,243.24,331.44,244.07Z" style="fill:#455a64"></path><path d="M333.52,256.94l-34.69,20c-1.43.83-2.42,2.45-2.18,3.61s1.6,1.42,3,.59l34.68-20c1.44-.83,2.4-2.44,2.16-3.6S335,256.11,333.52,256.94Z" style="fill:#455a64"></path><path d="M336.34,269.38l-34.69,20c-1.43.83-2.36,2.41-2,3.52s1.73,1.36,3.16.53l34.69-20c1.44-.83,2.34-2.4,2-3.52S337.77,268.55,336.34,269.38Z" style="fill:#455a64"></path><path d="M340,281.37l-84.54,48.81c-1.43.83-2.3,2.37-1.91,3.44s1.88,1.27,3.31.44l84.54-48.81c1.44-.83,2.27-2.36,1.88-3.44S341.38,280.54,340,281.37Z" style="fill:#455a64"></path><path d="M344.45,292.82l-84.53,48.81c-1.44.83-2.23,2.33-1.75,3.35s2,1.18,3.46.35l84.54-48.81c1.44-.83,2.21-2.33,1.73-3.35S345.89,292,344.45,292.82Z" style="fill:#455a64"></path><path d="M350,303.73l-84.54,48.81c-1.44.83-2.15,2.29-1.58,3.26s2.2,1.07,3.64.24L352,307.23c1.43-.82,2.12-2.27,1.55-3.24S351.4,302.9,350,303.73Z" style="fill:#455a64"></path><path d="M356.47,314.05l-84.53,48.8c-1.44.83-2.08,2.26-1.43,3.17s2.36,1,3.8.16l84.53-48.81c1.44-.83,2.06-2.24,1.41-3.16S357.91,313.22,356.47,314.05Z" style="fill:#455a64"></path><path d="M363.85,323.86l-84.54,48.8c-1.43.83-2,2.22-1.28,3.09s2.49.91,3.93.08L366.5,327c1.43-.83,2-2.2,1.26-3.07S365.29,323,363.85,323.86Z" style="fill:#455a64"></path><path d="M372,333.2,287.49,382c-1.44.83-2,2.19-1.16,3s2.62.83,4.05,0l84.54-48.81c1.44-.83,1.94-2.17,1.14-3S373.46,332.38,372,333.2Z" style="fill:#455a64"></path><path d="M381,342.13l-84.54,48.8c-1.43.83-1.9,2.16-1,2.95s2.74.76,4.18-.07L384.11,345c1.43-.83,1.88-2.13,1-2.93S382.4,341.3,381,342.13Z" style="fill:#455a64"></path><path d="M282.06,244.44l-39.88,23c.44,14.45,2.09,35.29,8.13,56.28l39.89-23C284.15,279.73,282.5,258.88,282.06,244.44Z" style="fill:#2850CA"></path><path d="M282.06,244.44l-39.88,23c.44,14.45,2.09,35.29,8.13,56.28l39.89-23C284.15,279.73,282.5,258.88,282.06,244.44Z" style="fill:#fff;opacity:0.8"></path><path d="M258.44,264.26a6.59,6.59,0,0,0-1.94-5.06l-14.32,8.26c.12,3.82.32,8.09.67,12.69a9.39,9.39,0,0,0,5.41-1C253.89,276.57,258.44,269.88,258.44,264.26Z" style="fill:#2850CA"></path><path d="M258.44,264.26a6.59,6.59,0,0,0-1.94-5.06l-14.32,8.26c.12,3.82.32,8.09.67,12.69a9.39,9.39,0,0,0,5.41-1C253.89,276.57,258.44,269.88,258.44,264.26Z" style="fill:#fff;opacity:0.6000000000000001"></path><path d="M286.81,286.92h0c-2.66-3.35-8.07-13.7-10.38-18.21a1,1,0,0,0-1.85.17,109.75,109.75,0,0,0-4.32,26.25,38,38,0,0,1-8.47-9.42.89.89,0,0,0-1.59.28c-4.36,16.79-2.17,33.31-2.17,33.31h0l32.17-18.58C288.86,296.08,287.75,291.46,286.81,286.92Z" style="fill:#2850CA"></path><path d="M286.81,286.92h0c-2.66-3.35-8.07-13.7-10.38-18.21a1,1,0,0,0-1.85.17,109.75,109.75,0,0,0-4.32,26.25,38,38,0,0,1-8.47-9.42.89.89,0,0,0-1.59.28c-4.36,16.79-2.17,33.31-2.17,33.31h0l32.17-18.58C288.86,296.08,287.75,291.46,286.81,286.92Z" style="fill:#fff;opacity:0.6000000000000001"></path></g></svg>